<?xml version="1.0" encoding="UTF-8" standalone="no"?>
<svg width="91.7222mm" height="94.5444mm"
 viewBox="0 0 260 268"
 xmlns="http://www.w3.org/2000/svg" xmlns:xlink="http://www.w3.org/1999/xlink"  version="1.2" baseProfile="tiny">
<title>Qt SVG Document</title>
<desc>Generated with Qt</desc>
<defs>
</defs>
<g fill="none" stroke="black" stroke-width="1" fill-rule="evenodd" stroke-linecap="square" stroke-linejoin="bevel" >

<g fill="#ffffff" fill-opacity="1" stroke="none" transform="matrix(1,0,0,1,0,0)"
font-family=".SF NS Text" font-size="13" font-weight="400" font-style="normal" 
>
<path vector-effect="none" fill-rule="evenodd" d="M0,0 L260,0 L260,268 L0,268 L0,0"/>
</g>

<g fill="none" stroke="#000000" stroke-opacity="1" stroke-width="1" stroke-linecap="round" stroke-linejoin="round" transform="matrix(1,0,0,1,0,0)"
font-family=".SF NS Text" font-size="13" font-weight="400" font-style="normal" 
>
<polyline fill="none" vector-effect="non-scaling-stroke" points="198,22 197,20 195,19 193,19 " />
<polyline fill="none" vector-effect="non-scaling-stroke" points="223,90 198,22 " />
<polyline fill="none" vector-effect="non-scaling-stroke" points="220,95 222,94 223,92 223,91 223,90 " />
</g>

<g fill="#000000" fill-opacity="1" stroke="none" transform="matrix(1,0,0,1,0,0)"
font-family=".SF NS Text" font-size="13" font-weight="400" font-style="normal" 
>
<path vector-effect="none" fill-rule="evenodd" d="M205.5,99 C205.5,99.2761 205.276,99.5 205,99.5 C204.724,99.5 204.5,99.2761 204.5,99 C204.5,98.7239 204.724,98.5 205,98.5 C205.276,98.5 205.5,98.7239 205.5,99 "/>
</g>

<g fill="none" stroke="#000000" stroke-opacity="1" stroke-width="1" stroke-linecap="round" stroke-linejoin="round" transform="matrix(1,0,0,1,0,0)"
font-family=".SF NS Text" font-size="13" font-weight="400" font-style="normal" 
>
<polyline fill="none" vector-effect="non-scaling-stroke" points="207,100 220,95 " />
<polyline fill="none" vector-effect="non-scaling-stroke" points="205,99 206,100 206,100 207,100 " />
<polyline fill="none" vector-effect="non-scaling-stroke" points="193,19 180,24 " />
<polyline fill="none" vector-effect="non-scaling-stroke" points="179,26 179,27 " />
<polyline fill="none" vector-effect="non-scaling-stroke" points="180,24 179,25 179,25 179,26 " />
<polyline fill="none" vector-effect="non-scaling-stroke" points="63,157 63,151 " />
<polyline fill="none" vector-effect="non-scaling-stroke" points="63,157 63,159 64,161 66,161 " />
<polyline fill="none" vector-effect="non-scaling-stroke" points="227,8 226,7 224,6 223,6 " />
<polyline fill="none" vector-effect="non-scaling-stroke" points="206,6 223,6 " />
<polyline fill="none" vector-effect="non-scaling-stroke" points="206,6 205,6 " />
<polyline fill="none" vector-effect="non-scaling-stroke" points="205,6 175,17 " />
<polyline fill="none" vector-effect="non-scaling-stroke" points="175,28 172,22 " />
<polyline fill="none" vector-effect="non-scaling-stroke" points="175,17 173,18 172,20 172,22 " />
<polyline fill="none" vector-effect="non-scaling-stroke" points="95,142 176,112 " />
<polyline fill="none" vector-effect="non-scaling-stroke" points="176,112 175,110 " />
<polyline fill="none" vector-effect="non-scaling-stroke" points="94,139 95,142 " />
<polyline fill="none" vector-effect="non-scaling-stroke" points="63,151 94,139 " />
<polyline fill="none" vector-effect="non-scaling-stroke" points="175,110 205,99 " />
<polyline fill="none" vector-effect="non-scaling-stroke" points="255,84 227,8 " />
<polyline fill="none" vector-effect="non-scaling-stroke" points="255,85 255,84 " />
<polyline fill="none" vector-effect="non-scaling-stroke" points="255,85 255,157 " />
<polyline fill="none" vector-effect="non-scaling-stroke" points="66,161 251,161 " />
<polyline fill="none" vector-effect="non-scaling-stroke" points="251,161 253,161 254,159 255,158 255,157 " />
<polyline fill="none" vector-effect="non-scaling-stroke" points="17,173 242,173 " />
<polyline fill="none" vector-effect="non-scaling-stroke" points="242,263 17,263 " />
<polyline fill="none" vector-effect="non-scaling-stroke" points="15,175 17,175 " />
<polyline fill="none" vector-effect="non-scaling-stroke" points="242,261 242,263 " />
<polyline fill="none" vector-effect="non-scaling-stroke" points="17,173 17,175 " />
<polyline fill="none" vector-effect="non-scaling-stroke" points="242,261 245,261 " />
<polyline fill="none" vector-effect="non-scaling-stroke" points="15,261 17,261 " />
<polyline fill="none" vector-effect="non-scaling-stroke" points="17,261 17,263 " />
<polyline fill="none" vector-effect="non-scaling-stroke" points="242,173 242,175 " />
<polyline fill="none" vector-effect="non-scaling-stroke" points="242,175 245,175 " />
<polyline fill="none" vector-effect="non-scaling-stroke" points="15,175 15,173 " />
<polyline fill="none" vector-effect="non-scaling-stroke" points="15,263 15,261 " />
<polyline fill="none" vector-effect="non-scaling-stroke" points="245,261 245,263 " />
<polyline fill="none" vector-effect="non-scaling-stroke" points="245,173 245,175 " />
<polyline fill="none" vector-effect="non-scaling-stroke" points="251,173 245,173 " />
<polyline fill="none" vector-effect="non-scaling-stroke" points="255,177 254,175 253,173 251,173 " />
<polyline fill="none" vector-effect="non-scaling-stroke" points="245,263 251,263 " />
<polyline fill="none" vector-effect="non-scaling-stroke" points="255,259 255,177 " />
<polyline fill="none" vector-effect="non-scaling-stroke" points="251,263 253,263 254,261 255,259 " />
<polyline fill="none" vector-effect="non-scaling-stroke" points="15,173 9,173 " />
<polyline fill="none" vector-effect="non-scaling-stroke" points="9,173 7,173 6,174 5,176 5,177 " />
<polyline fill="none" vector-effect="non-scaling-stroke" points="5,177 5,259 " />
<polyline fill="none" vector-effect="non-scaling-stroke" points="9,263 15,263 " />
<polyline fill="none" vector-effect="non-scaling-stroke" points="5,259 5,261 7,262 9,263 " />
<polyline fill="none" vector-effect="non-scaling-stroke" points="179,27 175,29 " />
<polyline fill="none" vector-effect="non-scaling-stroke" points="175,29 175,28 " />
</g>

<g fill="#000000" fill-opacity="1" stroke="none" transform="matrix(1,0,0,1,0,0)"
font-family=".SF NS Text" font-size="13" font-weight="400" font-style="normal" 
>
<path vector-effect="none" fill-rule="evenodd" d="M179.5,27 C179.5,27.2761 179.276,27.5 179,27.5 C178.724,27.5 178.5,27.2761 178.5,27 C178.5,26.7239 178.724,26.5 179,26.5 C179.276,26.5 179.5,26.7239 179.5,27 "/>
</g>

<g fill="none" stroke="#000000" stroke-opacity="1" stroke-width="1" stroke-linecap="round" stroke-linejoin="round" transform="matrix(1,0,0,1,0,0)"
font-family=".SF NS Text" font-size="13" font-weight="400" font-style="normal" 
>
<polyline fill="none" vector-effect="non-scaling-stroke" points="203,124 203,123 " />
<polyline fill="none" vector-effect="non-scaling-stroke" points="211,127 211,125 211,123 210,122 208,121 206,121 204,122 203,123 " />
<polyline fill="none" vector-effect="non-scaling-stroke" points="211,127 203,140 " />
<polyline fill="none" vector-effect="non-scaling-stroke" points="203,140 211,140 " />
<polyline fill="none" vector-effect="non-scaling-stroke" points="218,140 226,127 " />
<polyline fill="none" vector-effect="non-scaling-stroke" points="218,127 226,140 " />
<polyline fill="none" vector-effect="non-scaling-stroke" points="20,71 25,67 " />
<polyline fill="none" vector-effect="non-scaling-stroke" points="25,67 25,86 " />
<polyline fill="none" vector-effect="non-scaling-stroke" points="31,86 31,85 " />
<polyline fill="none" vector-effect="non-scaling-stroke" points="46,67 37,67 " />
<polyline fill="none" vector-effect="non-scaling-stroke" points="37,67 37,76 " />
<polyline fill="none" vector-effect="non-scaling-stroke" points="37,76 42,76 " />
<polyline fill="none" vector-effect="non-scaling-stroke" points="46,80 46,78 44,76 42,76 " />
<polyline fill="none" vector-effect="non-scaling-stroke" points="46,80 46,82 " />
<polyline fill="none" vector-effect="non-scaling-stroke" points="42,86 44,86 45,85 46,83 46,82 " />
<polyline fill="none" vector-effect="non-scaling-stroke" points="42,86 37,86 " />
<polyline fill="none" vector-effect="non-scaling-stroke" points="59,86 59,73 " />
<polyline fill="none" vector-effect="non-scaling-stroke" points="52,86 52,73 " />
<polyline fill="none" vector-effect="non-scaling-stroke" points="52,73 62,73 " />
<polyline fill="none" vector-effect="non-scaling-stroke" points="65,77 65,75 64,74 62,73 " />
<polyline fill="none" vector-effect="non-scaling-stroke" points="65,77 65,86 " />
<polyline fill="none" vector-effect="non-scaling-stroke" points="78,86 78,73 " />
<polyline fill="none" vector-effect="non-scaling-stroke" points="72,86 72,73 " />
<polyline fill="none" vector-effect="non-scaling-stroke" points="72,73 81,73 " />
<polyline fill="none" vector-effect="non-scaling-stroke" points="84,77 84,75 83,74 81,73 " />
<polyline fill="none" vector-effect="non-scaling-stroke" points="84,77 84,86 " />
<polyline fill="none" vector-effect="non-scaling-stroke" points="113,76 116,76 " />
<polyline fill="none" vector-effect="non-scaling-stroke" points="116,76 116,86 " />
<polyline fill="none" vector-effect="non-scaling-stroke" points="116,86 109,86 " />
<polyline fill="none" vector-effect="non-scaling-stroke" points="105,82 106,84 107,85 109,86 " />
<polyline fill="none" vector-effect="non-scaling-stroke" points="105,82 105,71 " />
<polyline fill="none" vector-effect="non-scaling-stroke" points="109,67 108,68 106,69 105,71 " />
<polyline fill="none" vector-effect="non-scaling-stroke" points="109,67 116,67 " />
<polyline fill="none" vector-effect="non-scaling-stroke" points="122,86 122,67 " />
<polyline fill="none" vector-effect="non-scaling-stroke" points="122,67 131,67 " />
<polyline fill="none" vector-effect="non-scaling-stroke" points="122,76 131,76 " />
<polyline fill="none" vector-effect="non-scaling-stroke" points="137,86 137,67 " />
<polyline fill="none" vector-effect="non-scaling-stroke" points="148,67 137,79 " />
<polyline fill="none" vector-effect="non-scaling-stroke" points="148,86 141,74 " />
<polyline fill="none" vector-effect="non-scaling-stroke" points="118,215 123,211 " />
<polyline fill="none" vector-effect="non-scaling-stroke" points="123,211 123,230 " />
<polyline fill="none" vector-effect="non-scaling-stroke" points="129,230 138,218 " />
<polyline fill="none" vector-effect="non-scaling-stroke" points="129,218 138,230 " />
</g>
</g>
</svg>
